<svg width="27" height="52" viewBox="0 0 27 52" fill="none" xmlns="http://www.w3.org/2000/svg">
<path d="M13.8379 31.5219C13.4417 31.9499 12.7667 31.9499 12.3705 31.5219L8.71654 27.5222L5.86972 24.3933C5.28275 23.7587 5.73765 22.7256 6.60344 22.7256H13.1042H19.6049C20.4707 22.7256 20.9256 23.7587 20.3386 24.3933L17.4771 27.5222L13.8379 31.5219Z" fill="url(#paint0_linear_478_3523)"/>
<path d="M12.6492 16.7484C12.8987 16.468 13.3389 16.468 13.5884 16.7484L15.2906 18.6228L16.4939 19.9363C16.8755 20.3496 16.582 21.0137 16.0243 21.0137H13.1188H10.2133C9.65568 21.0137 9.37687 20.3496 9.74372 19.9363L10.947 18.6228L12.6492 16.7484Z" fill="url(#paint1_linear_478_3523)"/>
<path d="M13.1189 51.3576L19.6636 39.9342L26.223 28.5107L13.1189 41.0411L0 28.5107L6.55943 39.9342L13.1189 51.3576Z" fill="url(#paint2_linear_478_3523)"/>
<path d="M14.513 1.44282C13.8967 0.365415 12.3412 0.365415 11.7249 1.44282L4.53447 13.9732L1.51156 19.2274C0.587074 20.8509 2.67083 22.5039 4.02087 21.2051L12.0184 13.5599C12.6347 12.9696 13.6179 12.9696 14.2342 13.5599L22.2317 21.2051C23.5818 22.4891 25.6655 20.8361 24.741 19.2274L21.7181 13.9584L14.513 1.44282Z" fill="url(#paint3_linear_478_3523)"/>
<path d="M13.1189 41.0411V51.3576L0 28.5107L13.1189 41.0411Z" fill="url(#paint4_linear_478_3523)"/>
<path d="M26.223 28.5104L13.1042 41.0408V36.0227L18.6071 29.9863C20.5588 27.8758 23.6404 27.2707 26.223 28.5104Z" fill="url(#paint5_linear_478_3523)"/>
<path d="M0 28.5108L13.1189 41.0411V36.0231L7.61598 30.0014C5.67897 27.8761 2.58268 27.271 0 28.5108Z" fill="url(#paint6_linear_478_3523)"/>
<path d="M13.1187 1.67922V12.1581C13.1187 12.3795 13.2068 12.6008 13.3829 12.7632L23.3467 22.2827C24.506 23.3896 26.3109 21.9728 25.5039 20.5707L14.4394 1.325C14.0725 0.690367 13.1187 0.941269 13.1187 1.67922Z" fill="url(#paint7_linear_478_3523)"/>
<defs>
<linearGradient id="paint0_linear_478_3523" x1="13.1138" y1="16.2986" x2="13.1138" y2="28.0704" gradientUnits="userSpaceOnUse">
<stop stop-color="#0DF17F"/>
<stop offset="1" stop-color="#00CCFE"/>
</linearGradient>
<linearGradient id="paint1_linear_478_3523" x1="23.1426" y1="-12.4848" x2="2.55107" y2="54.1853" gradientUnits="userSpaceOnUse">
<stop stop-color="#0DF17F"/>
<stop offset="1" stop-color="#00CCFE"/>
</linearGradient>
<linearGradient id="paint2_linear_478_3523" x1="31.9486" y1="39.9405" x2="13.2714" y2="39.9405" gradientUnits="userSpaceOnUse">
<stop stop-color="#0DF17F"/>
<stop offset="1" stop-color="#00CCFE"/>
</linearGradient>
<linearGradient id="paint3_linear_478_3523" x1="1.06489" y1="11.1541" x2="23.8377" y2="11.1541" gradientUnits="userSpaceOnUse">
<stop stop-color="#0DF17F"/>
<stop offset="1" stop-color="#00CCFE"/>
</linearGradient>
<linearGradient id="paint4_linear_478_3523" x1="-3.57941" y1="39.9405" x2="41.719" y2="39.9405" gradientUnits="userSpaceOnUse">
<stop stop-color="#0DF17F"/>
<stop offset="1" stop-color="#00CCFE"/>
</linearGradient>
<linearGradient id="paint5_linear_478_3523" x1="11.5916" y1="34.4622" x2="36.5346" y2="34.4622" gradientUnits="userSpaceOnUse">
<stop stop-color="#0DF17F"/>
<stop offset="1" stop-color="#00CCFE"/>
</linearGradient>
<linearGradient id="paint6_linear_478_3523" x1="25.7564" y1="34.4626" x2="1.74892" y2="34.4626" gradientUnits="userSpaceOnUse">
<stop stop-color="#0DF17F"/>
<stop offset="1" stop-color="#00CCFE"/>
</linearGradient>
<linearGradient id="paint7_linear_478_3523" x1="35.8186" y1="11.8211" x2="2.19992" y2="11.8211" gradientUnits="userSpaceOnUse">
<stop stop-color="#0DF17F"/>
<stop offset="1" stop-color="#00CCFE"/>
</linearGradient>
</defs>
</svg>
